<?xml version="1.0" encoding="UTF-8" standalone="no"?>
<svg
   width="20.833349mm"
   height="22.057877mm"
   viewBox="0 0 78.729154 83.356801"
   version="1.1"
   id="svg3"
   sodipodi:docname="black-acephale-path-03.svg"
   inkscape:version="1.2.2 (732a01da63, 2022-12-09)"
   inkscape:export-filename="black-acephale-path-03.png"
   inkscape:export-xdpi="96"
   inkscape:export-ydpi="96"
   xmlns:inkscape="http://www.inkscape.org/namespaces/inkscape"
   xmlns:sodipodi="http://sodipodi.sourceforge.net/DTD/sodipodi-0.dtd"
   xmlns="http://www.w3.org/2000/svg"
   xmlns:svg="http://www.w3.org/2000/svg">
  <defs
     id="defs7" />
  <sodipodi:namedview
     id="namedview5"
     pagecolor="#505050"
     bordercolor="#ffffff"
     borderopacity="1"
     inkscape:showpageshadow="0"
     inkscape:pageopacity="0"
     inkscape:pagecheckerboard="1"
     inkscape:deskcolor="#505050"
     inkscape:document-units="mm"
     showgrid="false"
     inkscape:zoom="6.067421"
     inkscape:cx="41.945334"
     inkscape:cy="41.368483"
     inkscape:window-width="1920"
     inkscape:window-height="1129"
     inkscape:window-x="-8"
     inkscape:window-y="-8"
     inkscape:window-maximized="1"
     inkscape:current-layer="layer1" />
  <path
     id="Selection"
     fill="none"
     stroke="black"
     stroke-width="1"
     d="m 45.857083,-0.20824481 c -3.42,6.40000001 -6.88,4.12000001 -13,6.47000001 -6.54,2.5000004 -11.67,6.3500008 -15.1,12.5300008 -4.22,7.63 -5.79,15.55 -3.63,24 2,7.81 3.02,10.9 8.82,16.98 3.7,3.89 7.7,6.75 12.91,8.23 15.76,4.49 31,-3.88 36.45,-19.21 3.24,-9.1 2.01,-26.73 -5.66,-33.45 -4.94,-4.32 -10.61,-4.63 -16.79,-4.55 -6.33,0.09 -9.95,1.64 -15,5.53 -3.46,2.66 -8.52,7.56 -10.43,11.47 -9.53,19.5 15.44,42.62 33.33,25.79 2.09,-1.97 3.54,-4.14 4.62,-6.79 1.29,-3.16 1.62,-6.61 1.44,-10 -0.38,-6.69 -6.98,-15.6 -13.96,-16.44 -8.17,-0.98 -17.81,8.62 -18.77,16.44 -1.72,13.91 16.08,16.16 19.22,3 1.35,-5.66 -4.6,-10.42 -7.59,-5.81 -1.87,2.9 0.92,7.08 -2.18,8.64 -2.91,1.47 -7.24,-2.87 -4.53,-9.83 5.82,-14.99 23.61,-4.68 21.62,8 -0.47,3.01 -2.07,5.55 -3.93,7.91 -11.28,14.25 -30.09,3.25 -28.64,-11.91 1.15,-12.09 10.62,-21.55 22.8,-21.96 3.51,-0.11 6.9,0.28 10,2.05 9.71,5.52 12.27,15.5 11.98,25.91 -0.17,6.43 -2.51,10.44 -7.02,14.96 -10.87,10.86 -25.14,10.15 -36.92,1.11 -8.28,-6.35 -9.94,-16.23 -8.87,-26.07 2.53,-23.2700004 36.83,-36.8800008 54.79,-22.32 8.2,6.65 9.15,18.58 9.04,28.32 -0.12,9.89 -4.64,21.99 -12.09,28.67 -5.46,4.9 -16.49,9.47 -23.91,9.2 -2.74,-0.1 -5.35,-1.01 -8,-1.64 -12.15,-2.85 -19.25,-7.56 -25.01,-19.23 -2.7699998,-5.63 -4.1199998,-13.75 -3.9799998,-20 0.48,-20.77 15.9399998,-39.4700008 37.9899998,-36.00000081 z"
     style="display:none;fill:#000002;fill-opacity:1;stroke:none"
     inkscape:label="Shape 1" />
  <g
     inkscape:groupmode="layer"
     id="layer1"
     inkscape:label="Layer 1"
     transform="translate(-18.142917,-15.208244)">
    <path
       id="Selection-0"
       fill="none"
       stroke="black"
       stroke-width="0.999998"
       d="m 59.120742,15.658489 c -3.688023,6.901564 -7.419181,4.442882 -14.018803,6.97705 -7.052536,2.695924 -12.584571,6.847648 -16.283379,13.511971 -4.550719,8.227958 -6.243759,16.768644 -3.914481,25.880867 2.156739,8.422065 3.256676,11.754227 9.511219,18.310713 3.989968,4.194858 8.303446,7.278994 13.921749,8.874981 16.995104,4.841879 33.429455,-4.184073 39.306571,-20.715477 3.493914,-9.813163 2.16752,-28.824817 -6.103574,-36.07146 C 76.212899,27.768579 70.098543,27.434284 63.43422,27.520553 56.608142,27.617603 52.704444,29.289079 47.258679,33.483937 43.52752,36.3524 38.07097,41.63641 36.011284,45.852835 25.734423,66.881039 52.661309,91.812942 71.953339,73.663983 c 2.253792,-2.124388 3.817428,-4.464449 4.982068,-7.322129 1.391096,-3.407647 1.746958,-7.128022 1.552852,-10.783694 -0.40978,-7.214293 -7.52702,-16.822565 -15.054039,-17.728394 -8.810277,-1.056802 -19.20576,9.295545 -20.240995,17.728394 -1.854796,15.00012 17.340182,17.426451 20.726263,3.235108 1.455797,-6.103571 -4.9605,-11.236609 -8.184825,-6.265327 -2.016551,3.127272 0.9921,7.634857 -2.350846,9.317113 -3.138055,1.585203 -7.807395,-3.09492 -4.885014,-10.600372 6.276111,-16.164758 25.460304,-5.046769 23.314348,8.626956 -0.506833,3.245891 -2.232224,5.98495 -4.237992,8.529902 C 55.411152,83.768305 35.127022,71.906241 36.690658,55.55816 37.930782,42.520673 48.142941,32.319298 61.277482,31.877166 c 3.785076,-0.11862 7.440749,0.301944 10.783695,2.210658 10.470967,5.952599 13.231596,16.714726 12.918869,27.940553 -0.183326,6.933915 -2.70671,11.258176 -7.570157,16.132407 -11.721876,11.711092 -27.110208,10.94545 -39.813401,1.19699 -8.9289,-6.847646 -10.718993,-17.501936 -9.565137,-28.113092 2.728274,-25.093658 39.716348,-39.770267 59.083868,-24.069207 8.842626,7.171157 9.867078,20.036104 9.748458,30.539424 -0.129402,10.665074 -5.003638,23.713345 -13.037489,30.916853 -5.887897,5.28401 -17.782313,10.21216 -25.783815,9.921 -2.954732,-0.10784 -5.769277,-1.08915 -8.626956,-1.768523 C 36.313228,93.710872 28.656804,88.631752 22.445397,76.04718 19.458314,69.97596 18.002515,61.219599 18.153486,54.479791 18.671104,32.082056 35.342696,11.916547 59.120742,15.658489 Z"
       style="display:inline;fill:#03a6ba;fill-opacity:1;stroke:none"
       inkscape:label="Shape 2" />
  </g>
</svg>
